<svg width="20" height="20" fill="none" xmlns="http://www.w3.org/2000/svg"><path fill-rule="evenodd" clip-rule="evenodd" d="M2 0h16a2 2 0 0 1 2 2v16a2 2 0 0 1-2 2H2a2 2 0 0 1-2-2V2a2 2 0 0 1 2-2z" fill="#010101"/><path fill-rule="evenodd" clip-rule="evenodd" d="M12.559 18.4c.608 0 1.102-.49 1.102-1.093 0-.604-.494-1.093-1.102-1.093h-.166c.608 0 1.101.49 1.101 1.093 0 .604-.493 1.093-1.101 1.093h.166z" fill="#EE1D51"/><path fill-rule="evenodd" clip-rule="evenodd" d="M12.377 16.214h-.166c-.608 0-1.102.49-1.102 1.093 0 .604.494 1.093 1.102 1.093h.166c-.608 0-1.102-.49-1.102-1.093 0-.604.494-1.093 1.102-1.093z" fill="#66C8CF"/><path d="M12.385 17.838a.534.534 0 0 0 .536-.53.534.534 0 0 0-.536-.532.534.534 0 0 0-.536.531c0 .294.24.532.536.532z" fill="#010101"/><path fill-rule="evenodd" clip-rule="evenodd" d="M4 15.72v.554h.649v2.111h.65v-2.096h.527l.182-.569H4zm5.313 0v.554h.65v2.111h.648v-2.096h.529l.18-.569H9.314zm-3.185.314c0-.173.142-.314.317-.314.175 0 .317.14.317.314a.316.316 0 0 1-.317.315.316.316 0 0 1-.317-.315zm0 .54h.634v1.811h-.634v-1.812zm.906-.854v2.665h.634v-.689l.196-.18.619.884h.68l-.891-1.288.8-.778h-.77l-.634.628V15.72h-.634zm6.837 0v2.665h.635v-.689l.196-.18.619.884H16l-.89-1.288.8-.778h-.77l-.634.628V15.72h-.635z" fill="#fff"/><path fill-rule="evenodd" clip-rule="evenodd" d="M12.893 6.495A5.326 5.326 0 0 0 16 7.489V5.26a3.14 3.14 0 0 1-.652-.068v1.754a5.327 5.327 0 0 1-3.107-.994V10.5a4.12 4.12 0 0 1-6.414 3.422 4.12 4.12 0 0 0 7.067-2.88V6.496zm.805-2.248a3.105 3.105 0 0 1-.805-1.818v-.287h-.618a3.12 3.12 0 0 0 1.423 2.105zm-6.432 7.929A1.884 1.884 0 0 1 9.338 9.24V6.962a4.156 4.156 0 0 0-.652-.038v1.773a1.884 1.884 0 0 0-1.42 3.478z" fill="#EE1D52"/><path fill-rule="evenodd" clip-rule="evenodd" d="M12.241 5.952a5.326 5.326 0 0 0 3.107.994V5.192a3.118 3.118 0 0 1-1.65-.945 3.12 3.12 0 0 1-1.423-2.105h-1.624v8.9a1.885 1.885 0 0 1-3.385 1.134 1.884 1.884 0 0 1 1.42-3.479V6.924a4.12 4.12 0 0 0-2.86 6.997A4.12 4.12 0 0 0 12.24 10.5V5.952z" fill="#fff"/><path fill-rule="evenodd" clip-rule="evenodd" d="M15.348 5.192v-.474a3.107 3.107 0 0 1-1.65-.471c.438.48 1.015.81 1.65.945zm-3.073-3.05a3.19 3.19 0 0 1-.034-.255V1.6H9.999v8.9a1.884 1.884 0 0 1-2.733 1.676 1.885 1.885 0 0 0 3.385-1.134v-8.9h1.624zM8.686 6.924V6.42a4.12 4.12 0 0 0-2.86 7.502 4.12 4.12 0 0 1 2.86-6.997z" fill="#69C9D0"/><path fill-rule="evenodd" clip-rule="evenodd" d="M12.392 18.4c.609 0 1.102-.49 1.102-1.093 0-.604-.493-1.093-1.102-1.093h-.015c-.608 0-1.102.49-1.102 1.093 0 .604.494 1.093 1.102 1.093h.015zm-.543-1.093c0-.294.24-.531.536-.531.296 0 .536.237.536.531 0 .294-.24.532-.536.532a.534.534 0 0 1-.536-.532z" fill="#fff"/></svg>